<svg width="24" height="24" viewBox="0 0 24 24" fill="none" xmlns="http://www.w3.org/2000/svg">
<path d="M0 0.5C0 0.223858 0.223858 0 0.5 0H9.23603C9.51217 0 9.73603 0.223858 9.73603 0.5V9.23603C9.73603 9.51217 9.51217 9.73603 9.23603 9.73603H0.5C0.223858 9.73603 0 9.51217 0 9.23603V0.5Z" fill="#596068"/>
<path d="M0 14.7632C0 14.487 0.223858 14.2632 0.5 14.2632H9.23603C9.51217 14.2632 9.73603 14.487 9.73603 14.7632V23.4992C9.73603 23.7754 9.51217 23.9992 9.23603 23.9992H0.5C0.223858 23.9992 0 23.7754 0 23.4992V14.7632Z" fill="#596068"/>
<path d="M14.2644 0.5C14.2644 0.223858 14.4883 0 14.7644 0H23.5005C23.7766 0 24.0005 0.223858 24.0005 0.5V9.23603C24.0005 9.51217 23.7766 9.73603 23.5005 9.73603H14.7644C14.4883 9.73603 14.2644 9.51217 14.2644 9.23603V0.5Z" fill="#596068"/>
<path d="M24.0005 14.7632C24.0005 14.487 23.7766 14.2632 23.5005 14.2632H14.7644C14.4883 14.2632 14.2644 14.487 14.2644 14.7632V23.4992C14.2644 23.7754 14.4883 23.9992 14.7644 23.9992H23.5005C23.7766 23.9992 24.0005 23.7754 24.0005 23.4992V14.7632Z" fill="#596068"/>
</svg>
