<svg width="24" height="24" viewBox="0 0 24 24" fill="none" xmlns="http://www.w3.org/2000/svg">
<path d="M0.000488281 0.8C0.000488281 0.358172 0.358661 0 0.800488 0H5.20049C5.64232 0 6.00049 0.358172 6.00049 0.8V5.2C6.00049 5.64183 5.64232 6 5.20049 6H0.800488C0.35866 6 0.000488281 5.64183 0.000488281 5.2V0.8Z" fill="#596068"/>
<path d="M0.000488281 9.8C0.000488281 9.35817 0.358661 9 0.800488 9H5.20049C5.64232 9 6.00049 9.35817 6.00049 9.8V14.2C6.00049 14.6418 5.64232 15 5.20049 15H0.800488C0.35866 15 0.000488281 14.6418 0.000488281 14.2V9.8Z" fill="#596068"/>
<path d="M6.00049 18.8C6.00049 18.3582 5.64232 18 5.20049 18H0.800488C0.35866 18 0.000488281 18.3582 0.000488281 18.8V23.2C0.000488281 23.6418 0.358661 24 0.800488 24H5.20049C5.64232 24 6.00049 23.6418 6.00049 23.2V18.8Z" fill="#596068"/>
<path d="M9.00049 0.8C9.00049 0.358172 9.35866 0 9.80049 0H14.2005C14.6423 0 15.0005 0.358172 15.0005 0.8V5.2C15.0005 5.64183 14.6423 6 14.2005 6H9.80049C9.35866 6 9.00049 5.64183 9.00049 5.2V0.8Z" fill="#596068"/>
<path d="M15.0005 9.8C15.0005 9.35817 14.6423 9 14.2005 9H9.80049C9.35866 9 9.00049 9.35817 9.00049 9.8V14.2C9.00049 14.6418 9.35866 15 9.80049 15H14.2005C14.6423 15 15.0005 14.6418 15.0005 14.2V9.8Z" fill="#596068"/>
<path d="M9.00049 18.8C9.00049 18.3582 9.35866 18 9.80049 18H14.2005C14.6423 18 15.0005 18.3582 15.0005 18.8V23.2C15.0005 23.6418 14.6423 24 14.2005 24H9.80049C9.35866 24 9.00049 23.6418 9.00049 23.2V18.8Z" fill="#596068"/>
<path d="M24.0005 0.8C24.0005 0.358172 23.6423 0 23.2005 0H18.8005C18.3587 0 18.0005 0.358172 18.0005 0.8V5.2C18.0005 5.64183 18.3587 6 18.8005 6H23.2005C23.6423 6 24.0005 5.64183 24.0005 5.2V0.8Z" fill="#596068"/>
<path d="M18.0005 9.8C18.0005 9.35817 18.3587 9 18.8005 9H23.2005C23.6423 9 24.0005 9.35817 24.0005 9.8V14.2C24.0005 14.6418 23.6423 15 23.2005 15H18.8005C18.3587 15 18.0005 14.6418 18.0005 14.2V9.8Z" fill="#596068"/>
<path d="M24.0005 18.8C24.0005 18.3582 23.6423 18 23.2005 18H18.8005C18.3587 18 18.0005 18.3582 18.0005 18.8V23.2C18.0005 23.6418 18.3587 24 18.8005 24H23.2005C23.6423 24 24.0005 23.6418 24.0005 23.2V18.8Z" fill="#596068"/>
</svg>
