<svg width="24" height="24" viewBox="0 0 24 24" fill="none" xmlns="http://www.w3.org/2000/svg">
<path d="M0.000488281 0.5C0.000488281 0.223858 0.224346 0 0.500488 0H3.86411C4.14025 0 4.36411 0.223858 4.36411 0.5V3.86362C4.36411 4.13976 4.14025 4.36362 3.86411 4.36362H0.500488C0.224346 4.36362 0.000488281 4.13976 0.000488281 3.86362V0.5Z" fill="#596068"/>
<path d="M0.000488281 7.04541C0.000488281 6.76927 0.224346 6.54541 0.500488 6.54541H3.86411C4.14025 6.54541 4.36411 6.76927 4.36411 7.04541V10.409C4.36411 10.6852 4.14025 10.909 3.86411 10.909H0.500488C0.224346 10.909 0.000488281 10.6852 0.000488281 10.409V7.04541Z" fill="#596068"/>
<path d="M4.36411 13.5908C4.36411 13.3147 4.14025 13.0908 3.86411 13.0908H0.500488C0.224346 13.0908 0.000488281 13.3147 0.000488281 13.5908V16.9544C0.000488281 17.2306 0.224346 17.4544 0.500488 17.4544H3.86411C4.14025 17.4544 4.36411 17.2306 4.36411 16.9544V13.5908Z" fill="#596068"/>
<path d="M6.5459 0.5C6.5459 0.223858 6.76976 0 7.0459 0H10.4095C10.6857 0 10.9095 0.223858 10.9095 0.5V3.86362C10.9095 4.13976 10.6857 4.36362 10.4095 4.36362H7.0459C6.76976 4.36362 6.5459 4.13976 6.5459 3.86362V0.5Z" fill="#596068"/>
<path d="M10.9095 7.04541C10.9095 6.76927 10.6857 6.54541 10.4095 6.54541H7.0459C6.76976 6.54541 6.5459 6.76927 6.5459 7.04541V10.409C6.5459 10.6852 6.76976 10.909 7.0459 10.909H10.4095C10.6857 10.909 10.9095 10.6852 10.9095 10.409V7.04541Z" fill="#596068"/>
<path d="M6.5459 13.5908C6.5459 13.3147 6.76976 13.0908 7.0459 13.0908H10.4095C10.6857 13.0908 10.9095 13.3147 10.9095 13.5908V16.9544C10.9095 17.2306 10.6857 17.4544 10.4095 17.4544H7.0459C6.76976 17.4544 6.5459 17.2306 6.5459 16.9544V13.5908Z" fill="#596068"/>
<path d="M17.4551 0.5C17.4551 0.223858 17.2312 0 16.9551 0H13.5914C13.3153 0 13.0914 0.223858 13.0914 0.5V3.86362C13.0914 4.13976 13.3153 4.36362 13.5914 4.36362H16.9551C17.2312 4.36362 17.4551 4.13976 17.4551 3.86362V0.5Z" fill="#596068"/>
<path d="M24.0003 0.5C24.0003 0.223858 23.7765 0 23.5003 0H20.1367C19.8606 0 19.6367 0.223858 19.6367 0.5V3.86362C19.6367 4.13976 19.8606 4.36362 20.1367 4.36362H23.5003C23.7765 4.36362 24.0003 4.13976 24.0003 3.86362V0.5Z" fill="#596068"/>
<path d="M13.0914 7.04541C13.0914 6.76927 13.3153 6.54541 13.5914 6.54541H16.9551C17.2312 6.54541 17.4551 6.76927 17.4551 7.04541V10.409C17.4551 10.6852 17.2312 10.909 16.9551 10.909H13.5914C13.3153 10.909 13.0914 10.6852 13.0914 10.409V7.04541Z" fill="#596068"/>
<path d="M19.6367 7.04541C19.6367 6.76927 19.8606 6.54541 20.1367 6.54541H23.5003C23.7765 6.54541 24.0003 6.76927 24.0003 7.04541V10.409C24.0003 10.6852 23.7765 10.909 23.5003 10.909H20.1367C19.8606 10.909 19.6367 10.6852 19.6367 10.409V7.04541Z" fill="#596068"/>
<path d="M17.4551 13.5908C17.4551 13.3147 17.2312 13.0908 16.9551 13.0908H13.5914C13.3153 13.0908 13.0914 13.3147 13.0914 13.5908V16.9544C13.0914 17.2306 13.3153 17.4544 13.5914 17.4544H16.9551C17.2312 17.4544 17.4551 17.2306 17.4551 16.9544V13.5908Z" fill="#596068"/>
<path d="M24.0003 13.5908C24.0003 13.3147 23.7765 13.0908 23.5003 13.0908H20.1367C19.8606 13.0908 19.6367 13.3147 19.6367 13.5908V16.9544C19.6367 17.2306 19.8606 17.4544 20.1367 17.4544H23.5003C23.7765 17.4544 24.0003 17.2306 24.0003 16.9544V13.5908Z" fill="#596068"/>
<path d="M0.000488281 20.1362C0.000488281 19.8601 0.224346 19.6362 0.500488 19.6362H3.86411C4.14025 19.6362 4.36411 19.8601 4.36411 20.1362V23.4999C4.36411 23.776 4.14025 23.9999 3.86411 23.9999H0.500488C0.224346 23.9999 0.000488281 23.776 0.000488281 23.4999V20.1362Z" fill="#596068"/>
<path d="M10.9095 20.1362C10.9095 19.8601 10.6857 19.6362 10.4095 19.6362H7.0459C6.76976 19.6362 6.5459 19.8601 6.5459 20.1362V23.4999C6.5459 23.776 6.76976 23.9999 7.0459 23.9999H10.4095C10.6857 23.9999 10.9095 23.776 10.9095 23.4999V20.1362Z" fill="#596068"/>
<path d="M13.0914 20.1362C13.0914 19.8601 13.3153 19.6362 13.5914 19.6362H16.9551C17.2312 19.6362 17.4551 19.8601 17.4551 20.1362V23.4999C17.4551 23.776 17.2312 23.9999 16.9551 23.9999H13.5914C13.3153 23.9999 13.0914 23.776 13.0914 23.4999V20.1362Z" fill="#596068"/>
<path d="M19.6367 20.1362C19.6367 19.8601 19.8606 19.6362 20.1367 19.6362H23.5003C23.7765 19.6362 24.0003 19.8601 24.0003 20.1362V23.4999C24.0003 23.776 23.7765 23.9999 23.5003 23.9999H20.1367C19.8606 23.9999 19.6367 23.776 19.6367 23.4999V20.1362Z" fill="#596068"/>
</svg>
