<?xml version="1.0" encoding="utf-8"?>
<svg width="22" height="22" viewBox="0 0 22 22" fill="none" xmlns="http://www.w3.org/2000/svg">
<path d="M19.3967 14.7857L17.5633 13.7315L18.3792 13.5115C18.499 13.4836 18.612 13.4318 18.7113 13.3593C18.8107 13.2869 18.8945 13.1951 18.9577 13.0895C19.0209 12.984 19.0622 12.8668 19.0791 12.7449C19.0961 12.6231 19.0883 12.4991 19.0563 12.3803C19.0243 12.2615 18.9687 12.1504 18.8928 12.0535C18.817 11.9567 18.7224 11.8761 18.6147 11.8165C18.5071 11.757 18.3885 11.7198 18.2662 11.707C18.1438 11.6943 18.0201 11.7063 17.9025 11.7423L15.3175 12.439L12.8333 10.9998L15.3175 9.56067L17.9025 10.2573H18.1408C18.384 10.2889 18.6297 10.2227 18.8239 10.0731C19.0182 9.92355 19.1451 9.70295 19.1767 9.45984C19.2083 9.21672 19.142 8.97101 18.9924 8.77675C18.8429 8.5825 18.6223 8.45561 18.3792 8.424L17.5633 8.24984L19.3967 7.19567C19.5014 7.13548 19.5932 7.05525 19.667 6.95957C19.7407 6.86388 19.7948 6.75461 19.8263 6.638C19.8578 6.52138 19.8661 6.39971 19.8505 6.27992C19.835 6.16012 19.796 6.04457 19.7358 5.93984C19.6756 5.83511 19.5954 5.74326 19.4997 5.66954C19.404 5.59581 19.2948 5.54166 19.1782 5.51016C19.0615 5.47867 18.9399 5.47045 18.8201 5.48598C18.7003 5.50151 18.5847 5.54048 18.48 5.60067L16.5 6.75567L16.775 5.73817C16.8111 5.62055 16.8231 5.49687 16.8103 5.37451C16.7976 5.25215 16.7603 5.13361 16.7008 5.02595C16.6413 4.91828 16.5607 4.82371 16.4638 4.74785C16.367 4.67199 16.2559 4.6164 16.1371 4.58439C16.0183 4.55239 15.8943 4.54462 15.7724 4.56156C15.6506 4.57849 15.5334 4.61978 15.4278 4.68296C15.3222 4.74615 15.2305 4.82993 15.158 4.92933C15.0855 5.02872 15.0338 5.14169 15.0058 5.2615L14.2542 8.0115L11.9167 9.414V6.54484L13.8142 4.64734C13.9849 4.47559 14.0807 4.24326 14.0807 4.00109C14.0807 3.75892 13.9849 3.52659 13.8142 3.35484C13.729 3.26892 13.6276 3.20072 13.5159 3.15419C13.4042 3.10765 13.2843 3.08369 13.1633 3.08369C13.0423 3.08369 12.9225 3.10765 12.8108 3.15419C12.6991 3.20072 12.5977 3.26892 12.5125 3.35484L11.9167 3.95067V1.83317C11.9167 1.59006 11.8201 1.3569 11.6482 1.18499C11.4763 1.01308 11.2431 0.916504 11 0.916504C10.7569 0.916504 10.5237 1.01308 10.3518 1.18499C10.1799 1.3569 10.0833 1.59006 10.0833 1.83317V4.09734L9.34084 3.35484C9.25562 3.26892 9.15423 3.20072 9.04253 3.15419C8.93083 3.10765 8.81101 3.08369 8.69 3.08369C8.56899 3.08369 8.44918 3.10765 8.33747 3.15419C8.22577 3.20072 8.12439 3.26892 8.03917 3.35484C7.86844 3.52659 7.77261 3.75892 7.77261 4.00109C7.77261 4.24326 7.86844 4.47559 8.03917 4.64734L10.0833 6.6915V9.4415L7.7275 8.04817L6.97584 5.29817C6.94792 5.17836 6.89618 5.06539 6.82368 4.96599C6.75119 4.8666 6.65943 4.78281 6.55387 4.71963C6.44831 4.65645 6.33111 4.61516 6.20926 4.59822C6.08741 4.58129 5.96339 4.58906 5.8446 4.62106C5.72582 4.65307 5.61469 4.70865 5.51784 4.78451C5.42099 4.86037 5.3404 4.95495 5.28087 5.06261C5.22134 5.17028 5.18409 5.28882 5.17135 5.41118C5.1586 5.53354 5.17061 5.65722 5.20667 5.77484L5.5 6.75567L3.52 5.619C3.41527 5.55881 3.29971 5.51984 3.17992 5.50431C3.06013 5.48878 2.93846 5.497 2.82184 5.5285C2.70523 5.55999 2.59596 5.61415 2.50027 5.68787C2.40459 5.76159 2.32436 5.85344 2.26417 5.95817C2.20398 6.0629 2.16501 6.17846 2.14948 6.29825C2.13395 6.41804 2.14217 6.53972 2.17366 6.65633C2.23727 6.89185 2.39183 7.09245 2.60334 7.214L4.43667 8.24984L3.66667 8.48817C3.42355 8.51978 3.20295 8.64666 3.05339 8.84092C2.90383 9.03518 2.83756 9.28089 2.86917 9.524C2.90077 9.76712 3.02766 9.98772 3.22192 10.1373C3.41617 10.2868 3.66189 10.3531 3.905 10.3215H4.14334L6.72834 9.62484L9.16667 10.9998L6.6825 12.439L4.0975 11.7423C3.97621 11.6973 3.84676 11.6784 3.71766 11.687C3.58856 11.6956 3.46274 11.7314 3.34847 11.7921C3.2342 11.8528 3.13407 11.937 3.05467 12.0391C2.97527 12.1413 2.91839 12.2591 2.88777 12.3848C2.85716 12.5105 2.85351 12.6413 2.87705 12.7685C2.90059 12.8957 2.9508 13.0165 3.02438 13.1229C3.09795 13.2294 3.19322 13.319 3.30392 13.386C3.41463 13.453 3.53825 13.4957 3.66667 13.5115L4.4825 13.7315L2.64917 14.7857C2.43766 14.9072 2.2831 15.1078 2.21949 15.3433C2.15589 15.5789 2.18845 15.83 2.31 16.0415C2.43156 16.253 2.63216 16.4076 2.86768 16.4712C3.10319 16.5348 3.35433 16.5022 3.56584 16.3807L5.5 15.244L5.225 16.2615C5.18867 16.3788 5.17628 16.5023 5.18859 16.6245C5.20089 16.7467 5.23764 16.8652 5.29664 16.973C5.35564 17.0807 5.43569 17.1755 5.53204 17.2517C5.62839 17.3279 5.73907 17.3839 5.8575 17.4165C5.93669 17.4255 6.01665 17.4255 6.09584 17.4165C6.30278 17.4236 6.50604 17.3604 6.67249 17.2372C6.83894 17.1141 6.95879 16.9382 7.0125 16.7382L7.76417 13.9882L10.0833 12.5857V15.4548L8.18584 17.3523C8.01511 17.5241 7.91928 17.7564 7.91928 17.9986C7.91928 18.2408 8.01511 18.4731 8.18584 18.6448C8.27073 18.7315 8.37197 18.8004 8.48369 18.8476C8.59541 18.8948 8.71539 18.9193 8.83667 18.9198C8.95795 18.9193 9.07793 18.8948 9.18965 18.8476C9.30136 18.8004 9.40261 18.7315 9.4875 18.6448L10.0833 18.049V20.1665C10.0833 20.4096 10.1799 20.6428 10.3518 20.8147C10.5237 20.9866 10.7569 21.0832 11 21.0832C11.2431 21.0832 11.4763 20.9866 11.6482 20.8147C11.8201 20.6428 11.9167 20.4096 11.9167 20.1665V17.9023L12.6592 18.6448C12.7444 18.7308 12.8458 18.7989 12.9575 18.8455C13.0692 18.892 13.189 18.916 13.31 18.916C13.431 18.916 13.5508 18.892 13.6625 18.8455C13.7742 18.7989 13.8756 18.7308 13.9608 18.6448C14.1316 18.4731 14.2274 18.2408 14.2274 17.9986C14.2274 17.7564 14.1316 17.5241 13.9608 17.3523L11.9167 15.3082V12.5582L14.2725 13.924L15.0242 16.674C15.0779 16.874 15.1977 17.0499 15.3642 17.1731C15.5306 17.2962 15.7339 17.3594 15.9408 17.3523C16.02 17.3613 16.1 17.3613 16.1792 17.3523C16.2962 17.3215 16.406 17.2678 16.5022 17.1943C16.5983 17.1208 16.679 17.029 16.7395 16.9242C16.8 16.8194 16.8392 16.7036 16.8547 16.5836C16.8702 16.4635 16.8618 16.3416 16.83 16.2248L16.5 15.244L18.4617 16.3807C18.5664 16.4409 18.682 16.4798 18.8017 16.4954C18.9215 16.5109 19.0432 16.5027 19.1598 16.4712C19.2764 16.4397 19.3857 16.3855 19.4814 16.3118C19.5771 16.2381 19.6573 16.1462 19.7175 16.0415C19.7777 15.9368 19.8167 15.8212 19.8322 15.7014C19.8477 15.5816 19.8395 15.46 19.808 15.3433C19.7765 15.2267 19.7224 15.1175 19.6486 15.0218C19.5749 14.9261 19.4831 14.8459 19.3783 14.7857H19.3967Z" fill="#1380FF"/>
</svg>
