<svg width="22" height="22" viewBox="0 0 22 22" fill="none" xmlns="http://www.w3.org/2000/svg">
<path d="M19.3964 14.7859L17.5631 13.7317L18.3789 13.5117C18.4987 13.4838 18.6117 13.4321 18.7111 13.3596C18.8105 13.2871 18.8943 13.1953 18.9575 13.0898C19.0206 12.9842 19.0619 12.867 19.0789 12.7452C19.0958 12.6233 19.088 12.4993 19.056 12.3805C19.024 12.2617 18.9684 12.1506 18.8926 12.0537C18.8167 11.9569 18.7221 11.8763 18.6145 11.8168C18.5068 11.7573 18.3883 11.72 18.2659 11.7073C18.1436 11.6945 18.0199 11.7065 17.9023 11.7426L15.3173 12.4392L12.8331 11.0001L15.3173 9.56091L17.9023 10.2576H18.1406C18.3837 10.2892 18.6294 10.2229 18.8237 10.0734C19.0179 9.9238 19.1448 9.7032 19.1764 9.46008C19.208 9.21697 19.1418 8.97125 18.9922 8.777C18.8426 8.58274 18.622 8.45585 18.3789 8.42425L17.5631 8.25008L19.3964 7.19591C19.5012 7.13573 19.593 7.0555 19.6667 6.95981C19.7404 6.86413 19.7946 6.75486 19.8261 6.63824C19.8576 6.52163 19.8658 6.39995 19.8503 6.28016C19.8348 6.16037 19.7958 6.04481 19.7356 5.94008C19.6754 5.83535 19.5952 5.7435 19.4995 5.66978C19.4038 5.59606 19.2945 5.5419 19.1779 5.51041C19.0613 5.47891 18.9396 5.4707 18.8198 5.48622C18.7 5.50175 18.5845 5.54073 18.4798 5.60091L16.4998 6.75591L16.7748 5.73841C16.8108 5.62079 16.8228 5.49712 16.8101 5.37476C16.7973 5.2524 16.7601 5.13385 16.7006 5.02619C16.641 4.91853 16.5604 4.82395 16.4636 4.74809C16.3667 4.67223 16.2556 4.61664 16.1368 4.58464C16.018 4.55263 15.894 4.54487 15.7722 4.5618C15.6503 4.57874 15.5331 4.62002 15.4276 4.68321C15.322 4.74639 15.2302 4.83017 15.1577 4.92957C15.0853 5.02896 15.0335 5.14193 15.0056 5.26175L14.2539 8.01175L11.9164 9.41425V6.54508L13.8139 4.64758C13.9847 4.47583 14.0805 4.2435 14.0805 4.00133C14.0805 3.75916 13.9847 3.52683 13.8139 3.35508C13.7287 3.26916 13.6273 3.20097 13.5156 3.15443C13.4039 3.10789 13.2841 3.08393 13.1631 3.08393C13.0421 3.08393 12.9223 3.10789 12.8106 3.15443C12.6989 3.20097 12.5975 3.26916 12.5123 3.35508L11.9164 3.95091V1.83341C11.9164 1.5903 11.8198 1.35714 11.6479 1.18523C11.476 1.01333 11.2429 0.916748 10.9998 0.916748C10.7566 0.916748 10.5235 1.01333 10.3516 1.18523C10.1797 1.35714 10.0831 1.5903 10.0831 1.83341V4.09758L9.34059 3.35508C9.25538 3.26916 9.15399 3.20097 9.04229 3.15443C8.93058 3.10789 8.81077 3.08393 8.68976 3.08393C8.56875 3.08393 8.44893 3.10789 8.33723 3.15443C8.22553 3.20097 8.12414 3.26916 8.03893 3.35508C7.8682 3.52683 7.77236 3.75916 7.77236 4.00133C7.77236 4.2435 7.8682 4.47583 8.03893 4.64758L10.0831 6.69175V9.44175L7.72726 8.04841L6.97559 5.29841C6.94768 5.1786 6.89593 5.06563 6.82344 4.96624C6.75094 4.86684 6.65918 4.78306 6.55362 4.71987C6.44806 4.65669 6.33087 4.6154 6.20901 4.59847C6.08716 4.58153 5.96315 4.5893 5.84436 4.6213C5.72557 4.65331 5.61444 4.7089 5.51759 4.78476C5.42074 4.86062 5.34015 4.9552 5.28062 5.06286C5.2211 5.17052 5.18385 5.28906 5.1711 5.41142C5.15835 5.53379 5.17037 5.65746 5.20642 5.77508L5.49976 6.75591L3.51976 5.61925C3.41503 5.55906 3.29947 5.52009 3.17968 5.50456C3.05989 5.48903 2.93821 5.49725 2.8216 5.52874C2.70498 5.56023 2.59571 5.61439 2.50003 5.68811C2.40434 5.76184 2.32411 5.85369 2.26393 5.95841C2.20374 6.06314 2.16476 6.1787 2.14923 6.29849C2.13371 6.41828 2.14192 6.53996 2.17342 6.65657C2.23702 6.89209 2.39158 7.09269 2.60309 7.21425L4.43643 8.25008L3.66643 8.48841C3.42331 8.52002 3.20271 8.64691 3.05315 8.84116C2.90359 9.03542 2.83732 9.28113 2.86893 9.52425C2.90053 9.76736 3.02742 9.98797 3.22167 10.1375C3.41593 10.2871 3.66164 10.3534 3.90476 10.3217H4.14309L6.72809 9.62508L9.16642 11.0001L6.68226 12.4392L4.09726 11.7426C3.97597 11.6975 3.84651 11.6787 3.71742 11.6873C3.58832 11.6958 3.46249 11.7316 3.34823 11.7923C3.23396 11.853 3.13383 11.9372 3.05442 12.0394C2.97502 12.1415 2.91814 12.2593 2.88753 12.385C2.85692 12.5107 2.85326 12.6415 2.87681 12.7687C2.90035 12.8959 2.95056 13.0167 3.02413 13.1232C3.09771 13.2296 3.19298 13.3193 3.30368 13.3862C3.41438 13.4532 3.53801 13.496 3.66643 13.5117L4.48226 13.7317L2.64893 14.7859C2.43742 14.9075 2.28286 15.1081 2.21925 15.3436C2.15564 15.5791 2.1882 15.8302 2.30976 16.0417C2.43132 16.2533 2.63192 16.4078 2.86743 16.4714C3.10295 16.535 3.35408 16.5025 3.56559 16.3809L5.49976 15.2442L5.22476 16.2617C5.18842 16.3791 5.17604 16.5025 5.18834 16.6247C5.20065 16.747 5.23739 16.8655 5.29639 16.9732C5.35539 17.0809 5.43545 17.1757 5.53179 17.2519C5.62814 17.3281 5.73882 17.3842 5.85726 17.4167C5.93645 17.4258 6.0164 17.4258 6.09559 17.4167C6.30254 17.4238 6.50579 17.3606 6.67225 17.2375C6.8387 17.1143 6.95854 16.9384 7.01226 16.7384L7.76393 13.9884L10.0831 12.5859V15.4551L8.18559 17.3526C8.01486 17.5243 7.91903 17.7567 7.91903 17.9988C7.91903 18.241 8.01486 18.4733 8.18559 18.6451C8.27049 18.7317 8.37173 18.8006 8.48345 18.8478C8.59517 18.895 8.71514 18.9196 8.83643 18.9201C8.95771 18.9196 9.07768 18.895 9.1894 18.8478C9.30112 18.8006 9.40236 18.7317 9.48726 18.6451L10.0831 18.0492V20.1667C10.0831 20.4099 10.1797 20.643 10.3516 20.8149C10.5235 20.9868 10.7566 21.0834 10.9998 21.0834C11.2429 21.0834 11.476 20.9868 11.6479 20.8149C11.8198 20.643 11.9164 20.4099 11.9164 20.1667V17.9026L12.6589 18.6451C12.7441 18.731 12.8455 18.7992 12.9572 18.8457C13.0689 18.8923 13.1887 18.9162 13.3098 18.9162C13.4308 18.9162 13.5506 18.8923 13.6623 18.8457C13.774 18.7992 13.8754 18.731 13.9606 18.6451C14.1313 18.4733 14.2272 18.241 14.2272 17.9988C14.2272 17.7567 14.1313 17.5243 13.9606 17.3526L11.9164 15.3084V12.5584L14.2723 13.9242L15.0239 16.6742C15.0776 16.8742 15.1975 17.0501 15.3639 17.1733C15.5304 17.2965 15.7336 17.3597 15.9406 17.3526C16.0198 17.3616 16.0997 17.3616 16.1789 17.3526C16.296 17.3217 16.4057 17.268 16.5019 17.1945C16.5981 17.1211 16.6788 17.0293 16.7393 16.9244C16.7998 16.8196 16.8389 16.7038 16.8545 16.5838C16.87 16.4638 16.8616 16.3419 16.8298 16.2251L16.4998 15.2442L18.4614 16.3809C18.5662 16.4411 18.6817 16.4801 18.8015 16.4956C18.9213 16.5111 19.043 16.5029 19.1596 16.4714C19.2762 16.4399 19.3855 16.3858 19.4812 16.312C19.5768 16.2383 19.6571 16.1465 19.7173 16.0417C19.7774 15.937 19.8164 15.8215 19.8319 15.7017C19.8475 15.5819 19.8393 15.4602 19.8078 15.3436C19.7763 15.227 19.7221 15.1177 19.6484 15.022C19.5747 14.9263 19.4828 14.8461 19.3781 14.7859H19.3964Z" fill="#D0E5FF"/>
</svg>
