<svg width="14" height="14" viewBox="0 0 14 14" fill="none" xmlns="http://www.w3.org/2000/svg">
<path d="M10.9077 10.0916C11.141 10.325 11.141 10.675 10.9077 10.9083C10.791 11.025 10.6744 11.0833 10.4994 11.0833C10.3244 11.0833 10.2077 11.025 10.091 10.9083L6.99935 7.81663L3.90768 10.9083C3.79102 11.025 3.67435 11.0833 3.49935 11.0833C3.32435 11.0833 3.20768 11.025 3.09102 10.9083C2.85768 10.675 2.85768 10.325 3.09102 10.0916L6.18268 6.99996L3.09102 3.90829C2.85768 3.67496 2.85768 3.32496 3.09102 3.09163C3.32435 2.85829 3.67435 2.85829 3.90768 3.09163L6.99935 6.18329L10.091 3.09163C10.3244 2.85829 10.6744 2.85829 10.9077 3.09163C11.141 3.32496 11.141 3.67496 10.9077 3.90829L7.81602 6.99996L10.9077 10.0916Z" fill="black"/>
<mask id="mask0" style="mask-type:alpha" maskUnits="userSpaceOnUse" x="2" y="2" width="10" height="10">
<path d="M10.9077 10.0916C11.141 10.325 11.141 10.675 10.9077 10.9083C10.791 11.025 10.6744 11.0833 10.4994 11.0833C10.3244 11.0833 10.2077 11.025 10.091 10.9083L6.99935 7.81663L3.90768 10.9083C3.79102 11.025 3.67435 11.0833 3.49935 11.0833C3.32435 11.0833 3.20768 11.025 3.09102 10.9083C2.85768 10.675 2.85768 10.325 3.09102 10.0916L6.18268 6.99996L3.09102 3.90829C2.85768 3.67496 2.85768 3.32496 3.09102 3.09163C3.32435 2.85829 3.67435 2.85829 3.90768 3.09163L6.99935 6.18329L10.091 3.09163C10.3244 2.85829 10.6744 2.85829 10.9077 3.09163C11.141 3.32496 11.141 3.67496 10.9077 3.90829L7.81602 6.99996L10.9077 10.0916Z" fill="white"/>
</mask>
</svg>
