<svg width="12" height="12" viewBox="0 0 12 12" fill="none" xmlns="http://www.w3.org/2000/svg">
<path fill-rule="evenodd" clip-rule="evenodd" d="M1.5 9H3.5C3.65 9 3.75 8.95 3.85 8.85L9.35 3.35C9.55 3.15 9.55 2.85 9.35 2.65L7.35 0.65C7.15 0.45 6.85 0.45 6.65 0.65L1.15 6.15C1.05 6.25 1 6.35 1 6.5V8.5C1 8.8 1.2 9 1.5 9ZM2 6.6998L7 1.6998L8.3 2.9998L3.3 7.9998H2V6.6998ZM10.5 11.5C10.8 11.5 11 11.3 11 11C11 10.7 10.8 10.5 10.5 10.5H1.5C1.2 10.5 1 10.7 1 11C1 11.3 1.2 11.5 1.5 11.5H10.5Z" fill="black"/>
<mask id="mask0" style="mask-type:alpha" maskUnits="userSpaceOnUse" x="1" y="0" width="10" height="12">
<path fill-rule="evenodd" clip-rule="evenodd" d="M1.5 9H3.5C3.65 9 3.75 8.95 3.85 8.85L9.35 3.35C9.55 3.15 9.55 2.85 9.35 2.65L7.35 0.65C7.15 0.45 6.85 0.45 6.65 0.65L1.15 6.15C1.05 6.25 1 6.35 1 6.5V8.5C1 8.8 1.2 9 1.5 9ZM2 6.6998L7 1.6998L8.3 2.9998L3.3 7.9998H2V6.6998ZM10.5 11.5C10.8 11.5 11 11.3 11 11C11 10.7 10.8 10.5 10.5 10.5H1.5C1.2 10.5 1 10.7 1 11C1 11.3 1.2 11.5 1.5 11.5H10.5Z" fill="white"/>
</mask>
<g mask="url(#mask0)">
<rect width="12" height="12" fill="#193D68"/>
</g>
</svg>
