<svg width="14" height="12" viewBox="0 0 14 12" fill="none" xmlns="http://www.w3.org/2000/svg">
<path d="M11.8998 2.21942H11.0038L10.7798 1.53516C10.6346 1.13366 10.3652 0.786242 10.009 0.541042C9.65284 0.295842 9.22746 0.165 8.79182 0.166641H5.20789C4.76798 0.167446 4.33944 0.303277 3.98275 0.554963C3.62606 0.806649 3.35924 1.16148 3.21993 1.56938L2.99594 2.25364H2.09996C1.54301 2.25364 1.00888 2.46991 0.615063 2.85488C0.221245 3.23986 0 3.76199 0 4.30642V9.78051C0 10.3249 0.221245 10.8471 0.615063 11.232C1.00888 11.617 1.54301 11.8333 2.09996 11.8333H11.8998C12.4567 11.8333 12.9908 11.617 13.3846 11.232C13.7785 10.8471 13.9997 10.3249 13.9997 9.78051V4.30642C14.0044 4.03398 13.9535 3.76336 13.85 3.51034C13.7466 3.25733 13.5926 3.02697 13.3972 2.83272C13.2017 2.63846 12.9686 2.48419 12.7115 2.37889C12.4545 2.2736 12.1785 2.21939 11.8998 2.21942ZM12.5997 9.7463C12.5997 9.92777 12.526 10.1018 12.3947 10.2301C12.2634 10.3585 12.0854 10.4306 11.8998 10.4306H2.09996C1.91431 10.4306 1.73626 10.3585 1.60499 10.2301C1.47372 10.1018 1.39997 9.92777 1.39997 9.7463V4.27221C1.39997 4.09073 1.47372 3.91669 1.60499 3.78836C1.73626 3.66004 1.91431 3.58795 2.09996 3.58795H3.49993C3.65257 3.59574 3.80363 3.55447 3.93002 3.47045C4.05642 3.38643 4.15121 3.26428 4.19991 3.12265L4.5779 2.00046C4.62486 1.86455 4.71433 1.74651 4.83366 1.66301C4.95299 1.57952 5.09614 1.53479 5.24289 1.53516H8.82682C8.97356 1.53479 9.11672 1.57952 9.23605 1.66301C9.35538 1.74651 9.44484 1.86455 9.4918 2.00046L9.86979 3.12265C9.91471 3.25317 9.99887 3.3674 10.1113 3.45042C10.2237 3.53343 10.3591 3.58136 10.4998 3.58795H11.8998C12.0854 3.58795 12.2634 3.66004 12.3947 3.78836C12.526 3.91669 12.5997 4.09073 12.5997 4.27221V9.7463ZM6.99985 3.58795C6.44608 3.58795 5.90474 3.74847 5.44429 4.04922C4.98384 4.34997 4.62497 4.77744 4.41305 5.27757C4.20112 5.7777 4.14568 6.32803 4.25371 6.85896C4.36175 7.3899 4.62842 7.87759 5.02 8.26037C5.41158 8.64316 5.91048 8.90383 6.45361 9.00944C6.99675 9.11505 7.55972 9.06085 8.07135 8.85369C8.58297 8.64653 9.02026 8.29572 9.32792 7.84561C9.63558 7.39551 9.7998 6.86633 9.7998 6.32499C9.7998 5.59908 9.5048 4.9029 8.97971 4.38961C8.45462 3.87631 7.74244 3.58795 6.99985 3.58795ZM6.99985 7.69351C6.72297 7.69351 6.4523 7.61325 6.22207 7.46288C5.99185 7.3125 5.81241 7.09877 5.70645 6.8487C5.60049 6.59864 5.57277 6.32347 5.62678 6.05801C5.6808 5.79254 5.81414 5.54869 6.00993 5.3573C6.20572 5.16591 6.45517 5.03557 6.72673 4.98276C6.9983 4.92996 7.27979 4.95706 7.5356 5.06064C7.79141 5.16422 8.01006 5.33963 8.16389 5.56468C8.31772 5.78973 8.39983 6.05432 8.39983 6.32499C8.39983 6.68795 8.25233 7.03603 7.98978 7.29268C7.72724 7.54933 7.37115 7.69351 6.99985 7.69351Z" fill="#193D68"/>
</svg>
