<svg width="48" height="48" viewBox="0 0 48 48" fill="none" xmlns="http://www.w3.org/2000/svg">
<g filter="url(#filter0_d)">
<path d="M4 4C4 1.79086 5.79086 0 8 0H40C42.2091 0 44 1.79086 44 4V36C44 38.2091 42.2091 40 40 40H8C5.79086 40 4 38.2091 4 36V4Z" fill="#1380FF"/>
<path fill-rule="evenodd" clip-rule="evenodd" d="M35.5247 14.2425L35.5107 14.1772C35.1819 12.8637 34.1757 11.8264 32.8728 11.4578C32.0862 11.265 30.6065 11.1515 28.5285 11.079C27.537 11.0444 26.4765 11.0222 25.4163 11.0099C25.0454 11.0056 24.701 11.0028 24.3917 11.0012C24.2057 11.0003 24.0724 11 24.0006 11C23.9286 11 23.7952 11.0003 23.609 11.0014C23.2995 11.003 22.9549 11.0061 22.5838 11.0108C21.5229 11.0243 20.4617 11.0486 19.4693 11.0866C17.3846 11.1662 15.9016 11.2909 15.1422 11.494C13.8255 11.8664 12.8193 12.9037 12.4905 14.2172C12.1508 16.0883 11.9915 17.9201 12.0006 19.7549C11.989 21.5924 12.1483 23.4382 12.4765 25.2575C12.861 26.6256 13.8613 27.6156 15.1367 27.9645C15.9016 28.1691 17.3846 28.2938 19.4693 28.3734C20.4617 28.4114 21.5229 28.4357 22.5838 28.4492C22.9549 28.4539 23.2995 28.457 23.609 28.4586C23.7952 28.4597 23.9286 28.46 24.0006 28.46C24.0725 28.46 24.206 28.4597 24.3922 28.4586C24.7016 28.457 25.0463 28.4539 25.4174 28.4492C26.4783 28.4357 27.5395 28.4114 28.5318 28.3734C30.6166 28.2938 32.0996 28.1691 32.8589 27.966C34.1757 27.5936 35.1819 26.5563 35.5107 25.2428C35.8478 23.3853 36.0071 21.5674 36.0006 19.7464C36.0122 17.9076 35.8529 16.0618 35.5247 14.2425ZM28.4588 13.0778C30.3824 13.1449 31.7986 13.2535 32.3634 13.3915C32.9328 13.5532 33.4008 14.029 33.563 14.6338C33.8649 16.3201 34.0114 18.0306 34.0006 19.7437C34.0067 21.4532 33.858 23.1499 33.5564 24.8226C33.4157 25.3757 32.9419 25.8642 32.3283 26.0378C31.7853 26.1829 30.3724 26.3017 28.4555 26.3749C27.4821 26.4121 26.4371 26.436 25.3919 26.4494C25.0259 26.454 24.686 26.457 24.3812 26.4587C24.1988 26.4597 24.069 26.46 24.0006 26.46C23.9321 26.46 23.8023 26.4597 23.6199 26.4587C23.3151 26.457 22.9753 26.454 22.6092 26.4494C21.564 26.436 20.5191 26.4121 19.5457 26.3749C17.6288 26.3017 16.2159 26.1829 15.6589 26.034C15.0639 25.8711 14.5929 25.4049 14.4223 24.8061C14.1384 23.2044 13.9897 21.4817 14.0006 19.7563C13.9921 18.0325 14.1408 16.3228 14.4447 14.6375C14.5855 14.0843 15.0593 13.5958 15.6728 13.4222C16.2159 13.2771 17.6288 13.1583 19.5457 13.0851C20.5191 13.0479 21.564 13.024 22.6092 13.0106C22.9753 13.006 23.3151 13.003 23.6199 13.0013C23.8023 13.0003 23.9321 13 24.0006 13C24.0692 13 24.1992 13.0003 24.3817 13.0012C24.6867 13.0027 25.0268 13.0055 25.393 13.0097C26.4389 13.0219 27.4846 13.0438 28.4588 13.0778ZM22.2449 23.8893C21.5783 24.2684 20.7506 23.7869 20.7506 23.02V16.48C20.7506 15.7131 21.5783 15.2316 22.2449 15.6107L27.9949 18.8807C28.6691 19.2642 28.6691 20.2358 27.9949 20.6193L22.2449 23.8893ZM22.7506 18.1991L25.4777 19.75L22.7506 21.3009V18.1991Z" fill="white"/>
<mask id="mask0" style="mask-type:alpha" maskUnits="userSpaceOnUse" x="12" y="11" width="25" height="18">
<path fill-rule="evenodd" clip-rule="evenodd" d="M35.5247 14.2425L35.5107 14.1772C35.1819 12.8637 34.1757 11.8264 32.8728 11.4578C32.0862 11.265 30.6065 11.1515 28.5285 11.079C27.537 11.0444 26.4765 11.0222 25.4163 11.0099C25.0454 11.0056 24.701 11.0028 24.3917 11.0012C24.2057 11.0003 24.0724 11 24.0006 11C23.9286 11 23.7952 11.0003 23.609 11.0014C23.2995 11.003 22.9549 11.0061 22.5838 11.0108C21.5229 11.0243 20.4617 11.0486 19.4693 11.0866C17.3846 11.1662 15.9016 11.2909 15.1422 11.494C13.8255 11.8664 12.8193 12.9037 12.4905 14.2172C12.1508 16.0883 11.9915 17.9201 12.0006 19.7549C11.989 21.5924 12.1483 23.4382 12.4765 25.2575C12.861 26.6256 13.8613 27.6156 15.1367 27.9645C15.9016 28.1691 17.3846 28.2938 19.4693 28.3734C20.4617 28.4114 21.5229 28.4357 22.5838 28.4492C22.9549 28.4539 23.2995 28.457 23.609 28.4586C23.7952 28.4597 23.9286 28.46 24.0006 28.46C24.0725 28.46 24.206 28.4597 24.3922 28.4586C24.7016 28.457 25.0463 28.4539 25.4174 28.4492C26.4783 28.4357 27.5395 28.4114 28.5318 28.3734C30.6166 28.2938 32.0996 28.1691 32.8589 27.966C34.1757 27.5936 35.1819 26.5563 35.5107 25.2428C35.8478 23.3853 36.0071 21.5674 36.0006 19.7464C36.0122 17.9076 35.8529 16.0618 35.5247 14.2425ZM28.4588 13.0778C30.3824 13.1449 31.7986 13.2535 32.3634 13.3915C32.9328 13.5532 33.4008 14.029 33.563 14.6338C33.8649 16.3201 34.0114 18.0306 34.0006 19.7437C34.0067 21.4532 33.858 23.1499 33.5564 24.8226C33.4157 25.3757 32.9419 25.8642 32.3283 26.0378C31.7853 26.1829 30.3724 26.3017 28.4555 26.3749C27.4821 26.4121 26.4371 26.436 25.3919 26.4494C25.0259 26.454 24.686 26.457 24.3812 26.4587C24.1988 26.4597 24.069 26.46 24.0006 26.46C23.9321 26.46 23.8023 26.4597 23.6199 26.4587C23.3151 26.457 22.9753 26.454 22.6092 26.4494C21.564 26.436 20.5191 26.4121 19.5457 26.3749C17.6288 26.3017 16.2159 26.1829 15.6589 26.034C15.0639 25.8711 14.5929 25.4049 14.4223 24.8061C14.1384 23.2044 13.9897 21.4817 14.0006 19.7563C13.9921 18.0325 14.1408 16.3228 14.4447 14.6375C14.5855 14.0843 15.0593 13.5958 15.6728 13.4222C16.2159 13.2771 17.6288 13.1583 19.5457 13.0851C20.5191 13.0479 21.564 13.024 22.6092 13.0106C22.9753 13.006 23.3151 13.003 23.6199 13.0013C23.8023 13.0003 23.9321 13 24.0006 13C24.0692 13 24.1992 13.0003 24.3817 13.0012C24.6867 13.0027 25.0268 13.0055 25.393 13.0097C26.4389 13.0219 27.4846 13.0438 28.4588 13.0778ZM22.2449 23.8893C21.5783 24.2684 20.7506 23.7869 20.7506 23.02V16.48C20.7506 15.7131 21.5783 15.2316 22.2449 15.6107L27.9949 18.8807C28.6691 19.2642 28.6691 20.2358 27.9949 20.6193L22.2449 23.8893ZM22.7506 18.1991L25.4777 19.75L22.7506 21.3009V18.1991Z" fill="white"/>
</mask>
</g>
<defs>
<filter id="filter0_d" x="0" y="0" width="48" height="48" filterUnits="userSpaceOnUse" color-interpolation-filters="sRGB">
<feFlood flood-opacity="0" result="BackgroundImageFix"/>
<feColorMatrix in="SourceAlpha" type="matrix" values="0 0 0 0 0 0 0 0 0 0 0 0 0 0 0 0 0 0 127 0" result="hardAlpha"/>
<feOffset dy="4"/>
<feGaussianBlur stdDeviation="2"/>
<feColorMatrix type="matrix" values="0 0 0 0 0 0 0 0 0 0 0 0 0 0 0 0 0 0 0.25 0"/>
<feBlend mode="normal" in2="BackgroundImageFix" result="effect1_dropShadow"/>
<feBlend mode="normal" in="SourceGraphic" in2="effect1_dropShadow" result="shape"/>
</filter>
</defs>
</svg>
