<svg width="24" height="24" viewBox="0 0 24 24" fill="none" xmlns="http://www.w3.org/2000/svg">
<path fill-rule="evenodd" clip-rule="evenodd" d="M20.1743 2.44682C20.5682 2.05288 21.1591 2.05288 21.5531 2.44682C21.947 2.84076 21.947 3.43167 21.5531 3.82561L16.3334 9.04531H19.8788C20.4697 9.04531 20.8637 9.43925 20.8637 10.0302C20.8637 10.6211 20.4697 11.015 19.8788 11.015H13.9697C13.8712 11.015 13.6743 11.015 13.5758 10.9165C13.3788 10.818 13.1819 10.6211 13.0834 10.4241C12.9849 10.3256 12.9849 10.1286 12.9849 10.0302V4.12106C12.9849 3.53016 13.3788 3.13622 13.9697 3.13622C14.5606 3.13622 14.9546 3.53016 14.9546 4.12106V7.66652L20.1743 2.44682ZM11.0152 13.9696C11.0152 13.8711 11.0152 13.6741 10.9167 13.5756C10.8182 13.3786 10.6212 13.1817 10.4243 13.0832C10.3258 12.9847 10.1288 12.9847 10.0303 12.9847H4.12125C3.53034 12.9847 3.1364 13.3786 3.1364 13.9696C3.1364 14.5605 3.53034 14.9544 4.12125 14.9544H7.6667L2.447 20.1741C2.05307 20.568 2.05307 21.1589 2.447 21.5529C2.64397 21.7499 2.84094 21.8483 3.1364 21.8483C3.43185 21.8483 3.62882 21.7499 3.82579 21.5529L9.04549 16.3332V19.8786C9.04549 20.4696 9.43943 20.8635 10.0303 20.8635C10.6212 20.8635 11.0152 20.4696 11.0152 19.8786V13.9696Z" fill="black"/>
<mask id="mask0" style="mask-type:alpha" maskUnits="userSpaceOnUse" x="2" y="2" width="20" height="20">
<path fill-rule="evenodd" clip-rule="evenodd" d="M20.1743 2.44682C20.5682 2.05288 21.1591 2.05288 21.5531 2.44682C21.947 2.84076 21.947 3.43167 21.5531 3.82561L16.3334 9.04531H19.8788C20.4697 9.04531 20.8637 9.43925 20.8637 10.0302C20.8637 10.6211 20.4697 11.015 19.8788 11.015H13.9697C13.8712 11.015 13.6743 11.015 13.5758 10.9165C13.3788 10.818 13.1819 10.6211 13.0834 10.4241C12.9849 10.3256 12.9849 10.1286 12.9849 10.0302V4.12106C12.9849 3.53016 13.3788 3.13622 13.9697 3.13622C14.5606 3.13622 14.9546 3.53016 14.9546 4.12106V7.66652L20.1743 2.44682ZM11.0152 13.9696C11.0152 13.8711 11.0152 13.6741 10.9167 13.5756C10.8182 13.3786 10.6212 13.1817 10.4243 13.0832C10.3258 12.9847 10.1288 12.9847 10.0303 12.9847H4.12125C3.53034 12.9847 3.1364 13.3786 3.1364 13.9696C3.1364 14.5605 3.53034 14.9544 4.12125 14.9544H7.6667L2.447 20.1741C2.05307 20.568 2.05307 21.1589 2.447 21.5529C2.64397 21.7499 2.84094 21.8483 3.1364 21.8483C3.43185 21.8483 3.62882 21.7499 3.82579 21.5529L9.04549 16.3332V19.8786C9.04549 20.4696 9.43943 20.8635 10.0303 20.8635C10.6212 20.8635 11.0152 20.4696 11.0152 19.8786V13.9696Z" fill="white"/>
</mask>
<g mask="url(#mask0)">
<rect x="0.181824" y="0.181641" width="23.6364" height="23.6364" fill="#002045"/>
</g>
</svg>
