<svg width="14" height="14" viewBox="0 0 14 14" fill="none" xmlns="http://www.w3.org/2000/svg">
<path fill-rule="evenodd" clip-rule="evenodd" d="M12.8337 5.25008V1.75008C12.8337 1.69175 12.8337 1.57508 12.7753 1.51675C12.717 1.40008 12.6003 1.28341 12.4837 1.22508C12.4253 1.16675 12.3087 1.16675 12.2503 1.16675H8.75033C8.40033 1.16675 8.16699 1.40008 8.16699 1.75008C8.16699 2.10008 8.40033 2.33341 8.75033 2.33341H10.8503L7.75866 5.42508C7.52533 5.65841 7.52533 6.00841 7.75866 6.24175C7.87533 6.35841 7.99199 6.41675 8.16699 6.41675C8.34199 6.41675 8.45866 6.35841 8.57533 6.24175L11.667 3.15008V5.25008C11.667 5.60008 11.9003 5.83341 12.2503 5.83341C12.6003 5.83341 12.8337 5.60008 12.8337 5.25008ZM2.33366 10.8501L5.42533 7.75842C5.65866 7.52508 6.00866 7.52508 6.24199 7.75842C6.47533 7.99175 6.47533 8.34175 6.24199 8.57508L3.15033 11.6667H5.25033C5.60033 11.6667 5.83366 11.9001 5.83366 12.2501C5.83366 12.6001 5.60033 12.8334 5.25033 12.8334H1.75033C1.69199 12.8334 1.57533 12.8334 1.51699 12.7751C1.40033 12.7167 1.28366 12.6001 1.22533 12.4834C1.16699 12.4251 1.16699 12.3084 1.16699 12.2501V8.75008C1.16699 8.40008 1.40033 8.16675 1.75033 8.16675C2.10033 8.16675 2.33366 8.40008 2.33366 8.75008V10.8501Z" fill="black"/>
<mask id="mask0" style="mask-type:alpha" maskUnits="userSpaceOnUse" x="1" y="1" width="12" height="12">
<path fill-rule="evenodd" clip-rule="evenodd" d="M12.8337 5.25008V1.75008C12.8337 1.69175 12.8337 1.57508 12.7753 1.51675C12.717 1.40008 12.6003 1.28341 12.4837 1.22508C12.4253 1.16675 12.3087 1.16675 12.2503 1.16675H8.75033C8.40033 1.16675 8.16699 1.40008 8.16699 1.75008C8.16699 2.10008 8.40033 2.33341 8.75033 2.33341H10.8503L7.75866 5.42508C7.52533 5.65841 7.52533 6.00841 7.75866 6.24175C7.87533 6.35841 7.99199 6.41675 8.16699 6.41675C8.34199 6.41675 8.45866 6.35841 8.57533 6.24175L11.667 3.15008V5.25008C11.667 5.60008 11.9003 5.83341 12.2503 5.83341C12.6003 5.83341 12.8337 5.60008 12.8337 5.25008ZM2.33366 10.8501L5.42533 7.75842C5.65866 7.52508 6.00866 7.52508 6.24199 7.75842C6.47533 7.99175 6.47533 8.34175 6.24199 8.57508L3.15033 11.6667H5.25033C5.60033 11.6667 5.83366 11.9001 5.83366 12.2501C5.83366 12.6001 5.60033 12.8334 5.25033 12.8334H1.75033C1.69199 12.8334 1.57533 12.8334 1.51699 12.7751C1.40033 12.7167 1.28366 12.6001 1.22533 12.4834C1.16699 12.4251 1.16699 12.3084 1.16699 12.2501V8.75008C1.16699 8.40008 1.40033 8.16675 1.75033 8.16675C2.10033 8.16675 2.33366 8.40008 2.33366 8.75008V10.8501Z" fill="white"/>
</mask>
<g mask="url(#mask0)">
<rect width="14" height="14" fill="#193D68"/>
</g>
</svg>
