<svg width="14" height="14" viewBox="0 0 14 14" fill="none" xmlns="http://www.w3.org/2000/svg">
<path d="M7.00065 0.333252C10.6827 0.333252 13.6673 3.31792 13.6673 6.99992C13.6673 10.6819 10.6827 13.6666 7.00065 13.6666C3.31865 13.6666 0.333984 10.6819 0.333984 6.99992C0.333984 3.31792 3.31865 0.333252 7.00065 0.333252ZM7.00065 3.66659C6.87983 3.66659 6.76309 3.71035 6.67203 3.78976C6.58097 3.86918 6.52175 3.97888 6.50532 4.09859L6.50065 4.16659V6.49992H4.16732C4.04064 6.49996 3.91869 6.54808 3.82612 6.63457C3.73356 6.72105 3.67727 6.83945 3.66863 6.96584C3.66 7.09223 3.69966 7.21718 3.77961 7.31545C3.85955 7.41372 3.97382 7.47798 4.09932 7.49525L4.16732 7.49992H6.50065V9.83325C6.50069 9.95993 6.54881 10.0819 6.6353 10.1744C6.72179 10.267 6.84018 10.3233 6.96657 10.3319C7.09296 10.3406 7.21791 10.3009 7.31618 10.221C7.41446 10.141 7.47872 10.0268 7.49598 9.90125L7.50065 9.83325V7.49992H9.83398C9.96067 7.49988 10.0826 7.45176 10.1752 7.36527C10.2677 7.27878 10.324 7.16039 10.3327 7.034C10.3413 6.90761 10.3016 6.78266 10.2217 6.68439C10.1418 6.58611 10.0275 6.52185 9.90198 6.50459L9.83398 6.49992H7.50065V4.16659C7.50065 4.03398 7.44797 3.9068 7.3542 3.81303C7.26044 3.71926 7.13326 3.66659 7.00065 3.66659Z" fill="#1380FF"/>
</svg>
