<svg width="28" height="28" viewBox="0 0 28 28" fill="none" xmlns="http://www.w3.org/2000/svg">
<circle cx="14" cy="14" r="14" fill="#1380FF"/>
<path fill-rule="evenodd" clip-rule="evenodd" d="M10.4993 8.75H12.8327C13.1827 8.75 13.416 8.98333 13.416 9.33333V18.6667C13.416 19.0167 13.1827 19.25 12.8327 19.25H10.4993C10.1493 19.25 9.91602 19.0167 9.91602 18.6667V9.33333C9.91602 8.98333 10.1493 8.75 10.4993 8.75ZM11.0827 18.0833H12.2493V9.91667H11.0827V18.0833ZM17.4993 8.75H15.166C14.816 8.75 14.5827 8.98333 14.5827 9.33333V18.6667C14.5827 19.0167 14.816 19.25 15.166 19.25H17.4993C17.8493 19.25 18.0827 19.0167 18.0827 18.6667V9.33333C18.0827 8.98333 17.8493 8.75 17.4993 8.75ZM15.7493 18.0833H16.916V9.91667H15.7493V18.0833Z" fill="white"/>
<mask id="mask0" style="mask-type:alpha" maskUnits="userSpaceOnUse" x="9" y="8" width="10" height="12">
<path fill-rule="evenodd" clip-rule="evenodd" d="M10.4993 8.75H12.8327C13.1827 8.75 13.416 8.98333 13.416 9.33333V18.6667C13.416 19.0167 13.1827 19.25 12.8327 19.25H10.4993C10.1493 19.25 9.91602 19.0167 9.91602 18.6667V9.33333C9.91602 8.98333 10.1493 8.75 10.4993 8.75ZM11.0827 18.0833H12.2493V9.91667H11.0827V18.0833ZM17.4993 8.75H15.166C14.816 8.75 14.5827 8.98333 14.5827 9.33333V18.6667C14.5827 19.0167 14.816 19.25 15.166 19.25H17.4993C17.8493 19.25 18.0827 19.0167 18.0827 18.6667V9.33333C18.0827 8.98333 17.8493 8.75 17.4993 8.75ZM15.7493 18.0833H16.916V9.91667H15.7493V18.0833Z" fill="white"/>
</mask>
</svg>
