<svg width="28" height="28" viewBox="0 0 28 28" fill="none" xmlns="http://www.w3.org/2000/svg">
<circle cx="14" cy="14" r="14" fill="#1380FF"/>
<path fill-rule="evenodd" clip-rule="evenodd" d="M11.208 8.25447L19.3747 13.5176C19.5497 13.5761 19.6663 13.81 19.6663 13.9855C19.6663 14.1609 19.5497 14.3363 19.3747 14.4533L11.208 19.7165C11.1497 19.7749 11.033 19.8334 10.9163 19.8334C10.7997 19.8334 10.7413 19.8334 10.6247 19.7749C10.4497 19.658 10.333 19.4825 10.333 19.2486V8.7223C10.333 8.48839 10.4497 8.31295 10.6247 8.25447C10.7997 8.13751 11.033 8.13751 11.208 8.25447ZM18.033 13.9855L11.4997 9.77496V18.196L18.033 13.9855Z" fill="white"/>
<mask id="mask0" style="mask-type:alpha" maskUnits="userSpaceOnUse" x="10" y="8" width="10" height="12">
<path fill-rule="evenodd" clip-rule="evenodd" d="M11.208 8.25447L19.3747 13.5176C19.5497 13.5761 19.6663 13.81 19.6663 13.9855C19.6663 14.1609 19.5497 14.3363 19.3747 14.4533L11.208 19.7165C11.1497 19.7749 11.033 19.8334 10.9163 19.8334C10.7997 19.8334 10.7413 19.8334 10.6247 19.7749C10.4497 19.658 10.333 19.4825 10.333 19.2486V8.7223C10.333 8.48839 10.4497 8.31295 10.6247 8.25447C10.7997 8.13751 11.033 8.13751 11.208 8.25447ZM18.033 13.9855L11.4997 9.77496V18.196L18.033 13.9855Z" fill="white"/>
</mask>
</svg>
